<svg xmlns="http://www.w3.org/2000/svg" aria-hidden="true" style="width: 0; height: 0; position: absolute;"><symbol id="icon-html" viewBox="0 0 128 128"><path fill="#E44D26" d="M19.037 113.876 9.032 1.661h109.936l-10.016 112.198-45.019 12.48z"></path><path fill="#F16529" d="m64 116.8 36.378-10.086 8.559-95.878H64z"></path><path fill="#EBEBEB" d="M64 52.455H45.788L44.53 38.361H64V24.599H29.489l.33 3.692 3.382 37.927H64zm0 35.743-.061.017-15.327-4.14-.979-10.975H33.816l1.928 21.609 28.193 7.826.063-.017z"></path><path fill="#fff" d="M63.952 52.455v13.763h16.947l-1.597 17.849-15.35 4.143v14.319l28.215-7.82.207-2.325 3.234-36.233.335-3.696h-3.708zm0-27.856v13.762h33.244l.276-3.092.628-6.978.329-3.692z"></path></symbol><symbol id="icon-svg" viewBox="0 0 256 256"><path d="M245.235 153.524c14.012-14.012 14.011-36.811 0-50.823-6.787-6.788-15.812-10.525-25.411-10.525-2.28 0-4.523.208-6.712.617 9.538-6.524 15.72-17.495 15.72-29.694 0-19.816-16.122-35.937-35.938-35.937-12.223 0-23.213 6.205-29.733 15.776 2.157-11.377-1.226-23.537-9.87-32.18C146.506 3.97 137.48.232 127.882.232c-9.6 0-18.624 3.738-25.412 10.526-8.643 8.643-12.026 20.803-9.87 32.18-6.519-9.57-17.509-15.776-29.733-15.776-19.815 0-35.936 16.12-35.936 35.937 0 12.2 6.18 23.17 15.718 29.694a36.487 36.487 0 0 0-6.711-.617c-9.6 0-18.624 3.738-25.411 10.526C3.738 109.489 0 118.514 0 128.112c0 9.6 3.738 18.624 10.526 25.412 6.787 6.787 15.812 10.526 25.41 10.526 2.28 0 4.523-.208 6.712-.618-9.538 6.525-15.718 17.496-15.718 29.695 0 19.815 16.12 35.936 35.936 35.936 12.224 0 23.215-6.206 29.734-15.776-2.157 11.378 1.226 23.538 9.87 32.18 6.787 6.788 15.812 10.526 25.41 10.526 9.6 0 18.625-3.738 25.412-10.526 8.643-8.643 12.026-20.803 9.869-32.18 6.52 9.57 17.51 15.776 29.733 15.776 19.816 0 35.937-16.12 35.937-35.936 0-12.2-6.18-23.17-15.719-29.695 2.189.41 4.433.618 6.712.618 9.599 0 18.624-3.739 25.411-10.526"></path><path d="M234.391 113.538c-8.049-8.048-21.099-8.048-29.148 0h-42.184l29.829-29.828c11.383 0 20.61-9.228 20.61-20.611 0-11.383-9.227-20.612-20.61-20.612-11.384 0-20.611 9.229-20.611 20.612l-29.829 29.829V50.743c8.049-8.049 8.049-21.099 0-29.148-8.05-8.05-21.1-8.05-29.149 0s-8.049 21.1 0 29.148v42.185l-29.828-29.83c0-11.382-9.228-20.61-20.611-20.61-11.383 0-20.611 9.228-20.611 20.61 0 11.384 9.228 20.612 20.61 20.612l29.83 29.828H50.504c-8.05-8.049-21.1-8.048-29.15 0-8.048 8.05-8.048 21.1 0 29.15 8.05 8.048 21.1 8.048 29.15 0h42.183L62.86 172.515c-11.383 0-20.611 9.227-20.611 20.61 0 11.384 9.228 20.612 20.61 20.612 11.384 0 20.612-9.228 20.612-20.611l29.828-29.829v42.184c-8.049 8.049-8.049 21.1 0 29.149 8.05 8.049 21.1 8.049 29.15 0 8.048-8.05 8.048-21.1 0-29.15v-42.183l29.828 29.829c0 11.383 9.227 20.61 20.61 20.61 11.384 0 20.612-9.227 20.612-20.61 0-11.384-9.228-20.611-20.611-20.611l-29.83-29.829h42.185c8.05 8.05 21.1 8.05 29.148 0 8.05-8.049 8.05-21.1 0-29.149" fill="#FFB13B"></path></symbol></svg>